<?xml version="1.0" standalone="no"?>
<!DOCTYPE svg PUBLIC "-//W3C//DTD SVG 20010904//EN"
 "http://www.w3.org/TR/2001/REC-SVG-20010904/DTD/svg10.dtd">
<svg version="1.0" xmlns="http://www.w3.org/2000/svg"
 width="128.000000pt" height="128.000000pt" viewBox="0 0 128.000000 128.000000"
 preserveAspectRatio="xMidYMid meet">

<g transform="translate(0.000000,128.000000) scale(0.100000,-0.100000)"
fill="#d1b2b7" stroke="none">
<path d="M584 1265 c-86 -44 -83 -178 5 -215 41 -17 35 -33 -16 -42 -23 -4
-59 -16 -82 -27 -58 -30 -65 -28 -58 21 5 39 2 48 -34 95 -47 62 -66 67 -75
18 -6 -33 -9 -35 -45 -35 -23 0 -39 -5 -39 -12 0 -6 19 -35 41 -65 34 -44 47
-53 73 -53 57 0 63 -13 25 -59 -33 -40 -35 -41 -100 -41 -104 0 -99 17 -99
-342 0 -283 1 -306 18 -321 10 -10 28 -17 40 -17 12 0 22 -4 22 -10 0 -5 -33
-10 -72 -12 l-73 -3 -3 -47 c-3 -40 1 -52 22 -73 l25 -25 481 0 481 0 25 25
c21 21 25 33 22 73 l-3 47 -72 3 c-40 2 -73 7 -73 12 0 6 11 10 23 10 13 0 31
8 40 18 15 16 17 54 17 324 0 356 5 338 -99 338 -62 0 -63 0 -106 48 -49 55
-125 100 -186 110 -54 9 -59 24 -15 45 72 34 86 131 28 189 -36 36 -93 46
-138 23z m111 -50 c31 -30 32 -73 4 -109 -22 -28 -39 -34 -39 -12 0 7 9 16 20
19 11 3 20 12 20 21 0 13 -12 16 -60 16 -48 0 -60 -3 -60 -16 0 -9 9 -18 20
-21 11 -3 20 -12 20 -19 0 -20 -10 -17 -37 8 -50 47 -12 138 57 138 19 0 40
-9 55 -25z m-311 -160 c33 -50 -11 -88 -56 -48 -22 20 -23 33 -3 33 8 0 19 9
25 20 14 25 14 25 34 -5z m383 -107 c186 -87 230 -335 86 -483 -138 -142 -382
-109 -477 66 -55 100 -45 232 25 329 25 34 33 39 45 30 20 -17 18 -28 -11 -62
-25 -29 -55 -113 -55 -153 0 -91 72 -196 162 -235 126 -54 279 9 334 138 20
47 21 146 1 193 -54 129 -213 195 -336 139 -33 -15 -47 -18 -57 -9 -20 16 -18
23 15 42 71 42 185 44 268 5z m-26 -81 c155 -81 150 -306 -7 -383 -63 -31
-132 -30 -198 1 -72 35 -124 136 -112 219 7 44 44 117 63 123 22 8 24 -35 3
-69 -24 -39 -27 -116 -6 -156 38 -73 125 -114 196 -93 172 51 173 280 0 332
-29 9 -50 9 -86 0 -40 -10 -50 -10 -62 3 -14 14 -12 17 19 30 53 23 138 20
190 -7z m-421 -57 c0 -5 -13 -10 -28 -10 -51 0 -52 -4 -52 -292 0 -254 1 -268
19 -278 27 -14 735 -14 762 0 18 10 19 24 19 278 0 195 -3 271 -12 280 -7 7
-27 12 -46 12 -19 0 -31 4 -27 10 3 6 24 10 45 10 70 0 70 2 70 -305 0 -150
-3 -280 -6 -289 -5 -14 -52 -16 -424 -16 -372 0 -419 2 -424 16 -3 9 -6 139
-6 289 0 307 -1 305 71 305 21 0 39 -4 39 -10z m375 -14 c98 -41 99 -193 2
-239 -43 -21 -67 -21 -112 -3 -63 27 -94 114 -63 181 13 30 20 31 41 7 11 -12
13 -22 7 -32 -16 -24 -11 -56 11 -84 28 -35 80 -36 114 -1 30 30 32 64 4 99
-16 20 -29 26 -59 26 -29 0 -42 5 -50 19 -13 26 -13 29 8 34 34 9 63 7 97 -7z
m-390 -124 c0 -75 4 -95 28 -143 48 -99 144 -170 251 -187 156 -25 296 51 365
197 21 46 26 70 26 139 0 72 2 82 18 82 16 0 17 -17 15 -247 l-3 -248 -365 0
-365 0 -3 235 c-1 129 0 240 2 247 3 7 11 13 18 13 10 0 13 -23 13 -88z m370
18 c10 -32 -5 -51 -39 -48 -24 2 -32 8 -34 28 -3 20 -1 23 9 13 23 -22 42 -16
35 12 -5 19 -3 23 8 19 9 -3 18 -14 21 -24z m-345 -530 c0 -5 -7 -10 -15 -10
-8 0 -15 5 -15 10 0 6 7 10 15 10 8 0 15 -4 15 -10z m580 0 c0 -6 -97 -10
-270 -10 -173 0 -270 4 -270 10 0 6 97 10 270 10 173 0 270 -4 270 -10z m70 0
c0 -5 -7 -10 -15 -10 -8 0 -15 5 -15 10 0 6 7 10 15 10 8 0 15 -4 15 -10z
m-486 -75 c24 -24 30 -25 150 -25 121 0 125 1 144 25 20 25 21 25 181 25 l161
0 0 -23 c0 -47 4 -47 -490 -47 -494 0 -490 0 -490 47 l0 23 160 0 c156 0 160
0 184 -25z m214 18 c-32 -2 -86 -2 -120 0 -35 2 -9 3 57 3 66 0 94 -1 63 -3z"/>
</g>
</svg>
