<?xml version="1.0" standalone="no"?>
<!DOCTYPE svg PUBLIC "-//W3C//DTD SVG 20010904//EN"
 "http://www.w3.org/TR/2001/REC-SVG-20010904/DTD/svg10.dtd">
<svg version="1.0" xmlns="http://www.w3.org/2000/svg"
 width="128.000000pt" height="128.000000pt" viewBox="0 0 128.000000 128.000000"
 preserveAspectRatio="xMidYMid meet">

<g transform="translate(0.000000,128.000000) scale(0.100000,-0.100000)"
fill="#b3b6c7" stroke="none">
<path d="M877 1273 c-4 -3 -7 -66 -7 -139 0 -151 -4 -144 91 -144 44 0 59 -4
59 -14 0 -7 -9 -16 -21 -19 -12 -3 -19 -12 -17 -19 3 -9 31 -14 91 -16 82 -3
87 -2 87 18 0 11 -7 20 -15 20 -8 0 -15 7 -15 15 0 12 13 15 59 15 87 0 91 7
91 149 0 78 -4 121 -12 129 -13 13 -379 18 -391 5z m363 -108 l0 -75 -170 0
-170 0 0 75 0 75 170 0 170 0 0 -75z"/>
<path d="M1015 1219 c-4 -5 0 -18 9 -28 20 -22 20 -35 1 -51 -8 -7 -15 -16
-15 -21 0 -14 32 -10 50 6 15 14 18 14 30 0 7 -8 19 -15 26 -15 19 0 18 24 -1
40 -14 12 -14 15 1 31 9 10 14 25 10 35 -6 15 -8 16 -24 0 -23 -20 -36 -20
-52 -1 -15 18 -26 19 -35 4z"/>
<path d="M680 925 l0 -225 -27 0 c-16 0 -34 -4 -42 -9 -22 -14 -3 -31 35 -31
l34 0 0 -230 0 -230 80 0 c64 0 80 3 80 15 0 12 -13 15 -60 15 l-60 0 0 215 0
215 54 0 c55 0 81 15 55 31 -8 5 -35 9 -61 9 l-48 0 0 210 0 209 57 3 c34 2
58 8 61 16 3 9 -17 12 -77 12 l-81 0 0 -225z"/>
<path d="M255 1014 c-16 -8 -39 -23 -49 -32 -28 -25 -76 -103 -76 -125 0 -17
5 -18 43 -10 55 11 220 10 276 -1 l44 -8 -7 27 c-19 73 -117 165 -177 165 -13
0 -37 -7 -54 -16z"/>
<path d="M253 822 c-36 -3 -43 -7 -43 -24 0 -26 71 -98 98 -98 28 0 77 43 92
80 7 17 11 32 9 34 -7 6 -113 12 -156 8z"/>
<path d="M877 813 c-4 -3 -7 -66 -7 -139 0 -151 -4 -144 91 -144 44 0 59 -4
59 -14 0 -7 -9 -16 -20 -19 -11 -3 -20 -12 -20 -21 0 -13 14 -16 89 -16 92 0
117 10 81 32 -39 25 -24 38 45 38 53 0 66 3 75 19 14 28 13 244 -2 259 -13 13
-379 18 -391 5z m363 -108 l0 -75 -170 0 -170 0 0 75 0 75 170 0 170 0 0 -75z"/>
<path d="M1015 759 c-4 -5 0 -18 9 -28 20 -22 20 -35 1 -51 -8 -7 -15 -16 -15
-21 0 -14 32 -10 50 6 15 14 18 14 30 0 7 -8 19 -15 26 -15 19 0 18 24 -1 40
-14 12 -14 15 1 31 9 11 14 25 10 35 -6 15 -9 15 -30 -5 -15 -14 -26 -19 -31
-12 -11 19 -43 32 -50 20z"/>
<path d="M142 799 c-21 -8 -22 -10 -8 -37 23 -45 144 -117 163 -98 4 3 -1 6
-10 6 -25 0 -88 60 -106 101 -14 32 -19 36 -39 28z"/>
<path d="M434 769 c-19 -45 -75 -98 -107 -100 -13 -1 -16 -3 -7 -6 40 -10 170
79 170 117 0 10 -9 20 -20 23 -17 4 -24 -2 -36 -34z"/>
<path d="M120 675 c-11 -13 -7 -15 31 -15 40 0 41 1 23 15 -25 19 -39 19 -54
0z"/>
<path d="M446 675 c-18 -14 -17 -15 23 -15 38 0 42 2 31 15 -15 19 -29 19 -54
0z"/>
<path d="M75 548 c3 -40 8 -106 11 -145 l6 -73 219 0 219 0 1 43 c1 23 4 88 8
145 l6 102 -238 0 -237 0 5 -72z m365 -53 c0 -69 -3 -85 -15 -85 -8 0 -15 -9
-15 -20 0 -15 -7 -20 -25 -20 -18 0 -25 5 -25 20 0 17 -7 20 -45 20 -38 0 -45
-3 -45 -20 0 -15 -7 -20 -25 -20 -18 0 -25 5 -25 20 0 11 -7 20 -15 20 -12 0
-15 16 -15 85 l0 85 125 0 125 0 0 -85z"/>
<path d="M254 539 c-7 -12 15 -31 28 -23 4 3 8 12 8 20 0 17 -26 19 -36 3z"/>
<path d="M336 541 c-3 -5 0 -14 8 -20 10 -8 16 -8 25 2 6 8 8 17 4 20 -9 10
-31 9 -37 -2z"/>
<path d="M253 477 c-9 -15 15 -30 53 -33 41 -4 77 11 71 29 -4 13 -115 18
-124 4z"/>
<path d="M17 465 c-15 -65 -15 -71 0 -82 9 -7 20 -13 25 -13 10 0 10 71 -1
125 l-7 40 -17 -70z"/>
<path d="M578 514 c-8 -8 -11 -144 -4 -144 23 0 36 16 35 44 -1 42 -22 110
-31 100z"/>
<path d="M883 353 c-10 -3 -13 -41 -13 -138 0 -152 -4 -145 91 -145 44 0 59
-4 59 -14 0 -7 -9 -16 -20 -19 -11 -3 -20 -12 -20 -21 0 -13 14 -16 89 -16 92
0 117 10 81 32 -39 25 -24 38 45 38 82 0 85 6 85 145 0 58 -5 115 -10 126 -10
18 -23 19 -193 18 -100 0 -188 -3 -194 -6z m357 -108 l0 -75 -170 0 -170 0 0
75 0 75 170 0 170 0 0 -75z"/>
<path d="M1015 299 c-4 -5 0 -18 9 -28 20 -22 20 -30 -1 -53 -25 -28 -3 -44
28 -19 24 19 24 19 46 -1 20 -19 23 -19 29 -4 4 9 0 24 -10 34 -14 17 -14 19
1 34 9 10 13 24 9 34 -6 15 -9 15 -30 -5 -15 -14 -26 -19 -31 -12 -11 19 -43
32 -50 20z"/>
</g>
</svg>
