<?xml version="1.0" standalone="no"?>
<!DOCTYPE svg PUBLIC "-//W3C//DTD SVG 20010904//EN"
 "http://www.w3.org/TR/2001/REC-SVG-20010904/DTD/svg10.dtd">
<svg version="1.0" xmlns="http://www.w3.org/2000/svg"
 width="128.000000pt" height="128.000000pt" viewBox="0 0 128.000000 128.000000"
 preserveAspectRatio="xMidYMid meet">

<g transform="translate(0.000000,128.000000) scale(0.100000,-0.100000)"
fill="#00897b" stroke="none">
<path d="M462 1268 c-19 -25 -82 -158 -82 -175 0 -9 21 -39 47 -65 l46 -47
-25 -10 c-39 -15 -68 -58 -68 -102 l0 -37 -120 -4 c-115 -3 -121 -4 -147 -31
l-28 -27 -5 -273 -5 -272 -30 -3 c-36 -4 -45 -16 -45 -61 0 -53 34 -114 79
-139 38 -22 43 -22 561 -22 518 0 523 0 561 22 45 25 79 86 79 139 0 45 -9 57
-45 61 l-30 3 -5 272 -5 273 -28 27 c-26 27 -32 28 -147 31 l-120 4 0 37 c0
44 -29 87 -68 102 l-25 10 46 47 c26 26 47 56 47 65 0 27 -79 177 -97 184 -9
3 -48 -10 -89 -30 l-74 -37 -70 35 c-76 38 -92 42 -108 23z m93 -100 l45 -22
0 -83 c0 -46 -3 -83 -7 -83 -4 0 -35 28 -69 61 l-62 62 21 43 c11 24 22 44 24
44 1 0 23 -10 48 -22z m242 -22 l21 -43 -62 -62 c-34 -33 -65 -61 -69 -61 -4
0 -7 37 -7 83 l0 83 43 21 c23 12 44 22 48 22 3 1 15 -19 26 -43z m15 -253
c10 -9 18 -27 18 -40 l0 -23 -190 0 -190 0 0 24 c0 51 18 56 187 56 132 0 159
-3 175 -17z m-431 -238 c6 -112 26 -170 84 -240 37 -46 114 -100 157 -110 65
-16 197 88 246 193 20 45 27 78 31 157 l6 100 96 3 c138 4 130 22 127 -284
l-3 -249 -485 0 -485 0 -3 249 c-3 306 -11 288 127 284 l96 -3 6 -100z m447
46 c6 -107 18 -101 -187 -101 -154 0 -180 2 -185 16 -8 22 -8 129 1 138 4 3
88 5 187 4 l181 -3 3 -54z m-38 -191 c0 -18 -89 -107 -120 -120 -24 -10 -36
-10 -60 0 -31 13 -120 102 -120 120 0 6 53 10 150 10 97 0 150 -4 150 -10z
m410 -374 c0 -8 -9 -24 -19 -37 l-19 -24 -522 0 -522 0 -19 24 c-43 53 -64 51
541 51 471 0 560 -2 560 -14z"/>
<path d="M247 669 c-15 -9 -17 -29 -17 -178 0 -180 5 -200 50 -186 19 6 20 14
20 180 0 157 -2 175 -18 184 -11 6 -24 6 -35 0z"/>
<path d="M998 669 c-16 -9 -18 -29 -18 -178 0 -178 5 -197 47 -189 16 3 18 19
21 177 3 195 -3 218 -50 190z"/>
</g>
</svg>
