<?xml version="1.0" standalone="no"?>
<!DOCTYPE svg PUBLIC "-//W3C//DTD SVG 20010904//EN"
 "http://www.w3.org/TR/2001/REC-SVG-20010904/DTD/svg10.dtd">
<svg version="1.0" xmlns="http://www.w3.org/2000/svg"
 width="128.000000pt" height="128.000000pt" viewBox="0 0 128.000000 128.000000"
 preserveAspectRatio="xMidYMid meet">

<g transform="translate(0.000000,128.000000) scale(0.100000,-0.100000)"
fill="#b6cbb2" stroke="none">
<path d="M625 1255 c-5 -2 -22 -6 -37 -9 -39 -9 -89 -55 -110 -103 l-19 -43
-140 0 c-153 0 -186 -9 -207 -55 -17 -37 -17 -693 0 -730 21 -47 53 -55 218
-55 l150 0 0 -40 c0 -33 -3 -40 -20 -40 -11 0 -29 -9 -40 -20 -17 -17 -20 -31
-18 -78 l3 -57 235 0 235 0 3 57 c2 47 -1 61 -18 78 -11 11 -29 20 -40 20 -17
0 -20 7 -20 40 l0 40 150 0 c165 0 197 8 218 55 17 37 17 693 0 730 -21 46
-54 55 -205 55 l-138 0 -23 50 c-17 37 -34 56 -65 74 -40 23 -91 37 -112 31z
m73 -49 c56 -29 77 -63 77 -125 0 -48 -5 -63 -27 -90 -16 -18 -28 -41 -28 -52
0 -10 -4 -19 -10 -19 -5 0 -10 14 -10 30 0 23 -4 30 -20 30 -16 0 -20 -7 -20
-30 0 -23 -4 -30 -20 -30 -16 0 -20 7 -20 30 0 23 -4 30 -20 30 -16 0 -20 -7
-20 -30 0 -16 -4 -30 -10 -30 -5 0 -10 11 -10 23 0 13 -9 32 -20 42 -27 24
-43 80 -36 120 17 87 118 140 194 101z m-230 -168 c3 -16 -11 -18 -140 -20
l-143 -3 0 -335 0 -335 455 0 455 0 0 335 0 335 -141 3 c-136 2 -142 3 -137
22 5 19 14 20 144 20 126 0 141 -2 159 -20 19 -19 20 -33 20 -360 0 -327 -1
-341 -20 -360 -19 -19 -33 -20 -480 -20 -447 0 -461 1 -480 20 -19 19 -20 33
-20 360 0 328 1 341 20 360 19 19 31 20 163 18 125 -3 142 -5 145 -20z m40
-80 c6 -13 12 -34 14 -48 l3 -25 115 0 115 0 3 30 c7 60 21 65 169 65 l133 0
0 -300 0 -300 -420 0 -420 0 0 300 0 300 138 0 c134 0 139 -1 150 -22z m252
-738 l0 -40 -120 0 -120 0 0 40 0 40 120 0 120 0 0 -40z m78 -122 l3 -38 -200
0 -201 0 0 33 c0 19 3 37 7 41 4 3 93 5 197 4 l191 -3 3 -37z"/>
<path d="M540 1140 c-11 -11 -20 -29 -20 -40 0 -27 35 -60 63 -60 13 0 32 9
41 19 17 19 18 19 37 0 37 -37 99 -11 99 41 0 52 -62 78 -99 41 -19 -19 -20
-19 -37 0 -22 25 -59 24 -84 -1z m56 -31 c10 -17 -13 -36 -27 -22 -12 12 -4
33 11 33 5 0 12 -5 16 -11z m120 0 c10 -17 -13 -36 -27 -22 -12 12 -4 33 11
33 5 0 12 -5 16 -11z"/>
<path d="M300 850 c0 -83 1 -90 20 -90 19 0 20 7 20 90 0 83 -1 90 -20 90 -19
0 -20 -7 -20 -90z"/>
<path d="M940 850 c0 -83 1 -90 20 -90 19 0 20 7 20 90 0 83 -1 90 -20 90 -19
0 -20 -7 -20 -90z"/>
<path d="M380 850 c0 -43 3 -50 20 -50 17 0 20 7 20 50 0 43 -3 50 -20 50 -17
0 -20 -7 -20 -50z"/>
<path d="M860 850 c0 -43 3 -50 20 -50 17 0 20 7 20 50 0 43 -3 50 -20 50 -17
0 -20 -7 -20 -50z"/>
<path d="M587 834 c-4 -4 -7 -31 -7 -61 0 -50 -2 -53 -24 -53 -45 0 -39 -21
23 -84 l61 -61 61 61 c62 62 68 84 24 84 -22 0 -24 4 -27 58 l-3 57 -50 3
c-28 2 -54 0 -58 -4z m73 -89 c0 -38 4 -57 15 -63 13 -7 12 -12 -10 -32 l-25
-23 -25 23 c-22 20 -23 25 -10 32 11 6 15 25 15 63 0 48 2 55 20 55 18 0 20
-7 20 -55z"/>
<path d="M380 740 c0 -13 7 -20 20 -20 13 0 20 7 20 20 0 13 -7 20 -20 20 -13
0 -20 -7 -20 -20z"/>
<path d="M860 740 c0 -13 7 -20 20 -20 13 0 20 7 20 20 0 13 -7 20 -20 20 -13
0 -20 -7 -20 -20z"/>
<path d="M404 587 c-3 -8 -4 -47 -2 -88 l3 -74 235 0 235 0 0 85 0 85 -75 0
c-74 0 -75 0 -78 -27 -3 -28 -4 -28 -82 -28 -78 0 -79 0 -82 28 -3 26 -5 27
-76 30 -54 2 -74 -1 -78 -11z m118 -54 l3 -28 115 0 115 0 3 28 c3 24 7 27 43
27 l39 0 0 -50 0 -50 -200 0 -200 0 0 50 0 50 39 0 c36 0 40 -3 43 -27z"/>
</g>
</svg>
