<?xml version="1.0" standalone="no"?>
<!DOCTYPE svg PUBLIC "-//W3C//DTD SVG 20010904//EN"
 "http://www.w3.org/TR/2001/REC-SVG-20010904/DTD/svg10.dtd">
<svg version="1.0" xmlns="http://www.w3.org/2000/svg"
 width="256.000000pt" height="256.000000pt" viewBox="0 0 256.000000 256.000000"
 preserveAspectRatio="xMidYMid meet">

<g transform="translate(0.000000,256.000000) scale(0.100000,-0.100000)"
fill="#3b5998" stroke="none">
<path d="M137 2422 c-15 -16 -17 -51 -17 -281 0 -162 4 -270 10 -282 13 -23
53 -25 74 -3 14 13 16 50 16 250 l0 234 234 0 c200 0 237 2 250 16 22 21 20
61 -3 74 -12 6 -121 10 -284 10 -243 0 -265 -1 -280 -18z"/>
<path d="M1858 2429 c-22 -12 -23 -52 -2 -73 13 -14 50 -16 250 -16 l234 0 0
-234 c0 -200 2 -237 16 -250 21 -22 61 -20 74 3 6 12 10 121 10 284 0 243 -1
265 -18 280 -16 15 -51 17 -283 17 -161 0 -271 -5 -281 -11z"/>
<path d="M1240 2361 c-6 -11 -10 -87 -10 -175 0 -149 1 -155 22 -170 29 -20
34 -20 58 4 18 18 20 33 20 171 0 84 -5 159 -10 170 -7 12 -21 19 -40 19 -19
0 -33 -7 -40 -19z"/>
<path d="M980 2191 c-138 -46 -249 -113 -360 -217 -121 -114 -220 -275 -257
-418 l-18 -68 23 -18 c40 -33 61 -14 97 86 52 147 105 233 206 333 100 101
186 154 333 206 97 35 117 55 90 94 -18 25 -41 26 -114 2z"/>
<path d="M1467 2195 c-37 -37 -14 -66 78 -95 134 -44 244 -110 344 -211 101
-100 154 -186 206 -333 35 -98 55 -117 95 -89 19 13 21 22 16 55 -8 50 -51
157 -94 233 -104 184 -283 340 -483 418 -92 37 -141 43 -162 22z"/>
<path d="M1115 1910 c-45 -10 -68 -25 -109 -70 -53 -59 -102 -167 -128 -281
l-22 -97 -40 -12 c-93 -27 -156 -83 -156 -139 0 -32 55 -86 112 -111 222 -95
794 -95 1016 0 57 25 112 79 112 111 0 56 -63 112 -157 140 -38 11 -43 16 -49
48 -23 133 -77 270 -133 333 -69 79 -135 97 -226 62 -40 -15 -53 -16 -89 -5
-82 24 -102 27 -131 21z m71 -106 c21 -9 63 -16 94 -16 31 0 73 7 94 16 50 21
50 21 91 -16 61 -53 115 -180 135 -316 5 -35 14 -69 20 -77 6 -7 41 -23 78
-34 37 -11 76 -26 86 -34 19 -14 19 -15 -12 -31 -106 -55 -407 -87 -639 -68
-152 12 -290 39 -345 68 -31 16 -31 17 -12 31 10 8 49 23 86 34 37 11 71 26
77 33 6 7 15 46 22 87 19 122 65 234 119 291 25 26 51 48 57 48 6 0 28 -7 49
-16z"/>
<path d="M1148 1653 c-23 -25 -60 -141 -53 -164 4 -10 15 -24 26 -30 30 -16
62 10 76 62 8 30 19 47 35 54 27 12 36 56 14 74 -27 22 -80 25 -98 4z"/>
<path d="M198 1319 c-25 -14 -24 -65 1 -79 11 -5 86 -10 170 -10 138 0 153 2
171 20 11 11 20 25 20 30 0 6 -9 19 -20 30 -18 18 -33 20 -172 20 -85 0 -161
-5 -170 -11z"/>
<path d="M2016 1308 c-20 -29 -20 -34 4 -58 18 -18 33 -20 171 -20 84 0 159 5
170 10 12 7 19 21 19 40 0 19 -7 33 -19 40 -11 6 -87 10 -175 10 -149 0 -155
-1 -170 -22z"/>
<path d="M365 1090 c-21 -23 -16 -64 22 -160 92 -235 295 -441 525 -535 46
-19 102 -37 124 -41 36 -5 44 -3 57 16 28 40 9 60 -89 95 -147 52 -233 105
-333 206 -101 100 -167 210 -211 344 -30 93 -58 116 -95 75z"/>
<path d="M2138 1098 c-9 -7 -26 -44 -38 -83 -86 -267 -290 -470 -559 -556 -88
-28 -109 -55 -73 -92 22 -22 22 -22 89 -4 81 21 204 82 288 142 133 94 266
268 328 425 38 96 43 137 22 160 -21 23 -35 25 -57 8z"/>
<path d="M983 1060 c-93 -22 -155 -96 -161 -193 -5 -81 24 -138 92 -184 41
-28 57 -33 107 -33 76 0 115 17 161 68 43 48 62 108 53 168 -6 40 -4 44 19 50
14 3 36 4 49 0 21 -5 23 -11 23 -73 0 -74 13 -109 61 -157 39 -40 82 -56 152
-56 50 0 66 5 107 33 29 20 57 49 72 77 49 92 13 221 -77 274 -69 40 -165 38
-224 -5 -27 -20 -30 -20 -74 -5 -58 20 -71 20 -129 0 -41 -14 -48 -14 -62 0
-35 31 -117 49 -169 36z m97 -105 c87 -45 74 -178 -20 -206 -130 -39 -200 146
-79 208 32 17 64 16 99 -2z m533 -25 c52 -58 30 -150 -43 -180 -67 -28 -150
29 -150 103 0 104 124 154 193 77z"/>
<path d="M130 701 c-6 -12 -10 -121 -10 -284 0 -243 1 -265 18 -280 16 -15 51
-17 281 -17 162 0 270 4 282 10 23 13 25 53 3 74 -13 14 -50 16 -250 16 l-234
0 0 234 c0 200 -2 237 -16 250 -21 22 -61 20 -74 -3z"/>
<path d="M2356 704 c-14 -13 -16 -50 -16 -250 l0 -234 -234 0 c-200 0 -237 -2
-250 -16 -22 -21 -20 -61 3 -74 12 -6 121 -10 284 -10 243 0 265 1 280 18 15
16 17 51 17 281 0 162 -4 270 -10 282 -13 23 -53 25 -74 3z"/>
<path d="M1252 544 c-21 -15 -22 -21 -22 -170 0 -88 4 -164 10 -175 14 -26 66
-26 80 0 5 11 10 86 10 170 0 138 -2 153 -20 171 -24 24 -29 24 -58 4z"/>
</g>
</svg>
