<?xml version="1.0" encoding="UTF-8"?>
<svg id="Layer_1" data-name="Layer 1" xmlns="http://www.w3.org/2000/svg" viewBox="0 0 723.19 144.85">
  <defs>
    <style>
      .cls-1 {
        fill: #231f20;
      }

      .cls-2 {
        fill: #191919;
      }
    </style>
  </defs>
  <g>
    <path class="cls-2" d="M68.98,58.99l-19.22-6.79c-5.53-2.01-9.77-4.52-12.72-7.54-2.95-3.02-4.43-6.85-4.43-11.5,0-3.52.91-6.6,2.73-9.24,1.82-2.64,4.34-4.68,7.54-6.13,3.2-1.44,6.82-2.17,10.84-2.17,7.16,0,13.16,2.45,18,7.35,4.84,4.9,8.26,11.94,10.27,21.11h1.7l17.34-17.53c-2.89-5.28-6.88-9.74-11.97-13.38-5.09-3.64-10.71-6.41-16.87-8.29-6.16-1.88-12.32-2.83-18.47-2.83-9.55,0-18.06,1.6-25.54,4.81-7.48,3.2-13.26,7.73-17.34,13.57-4.08,5.84-6.13,12.66-6.13,20.45,0,9.55,2.76,17.28,8.29,23.18,5.53,5.91,14.14,11,25.82,15.27l17.34,6.03c6.15,2.26,10.8,5.25,13.95,8.95,3.14,3.71,4.71,8.14,4.71,13.29,0,4.15-1.01,7.79-3.01,10.93-2.01,3.14-4.81,5.53-8.39,7.16-3.58,1.63-7.63,2.45-12.16,2.45-5.15,0-9.83-1.16-14.04-3.49-4.21-2.32-7.89-6-11.03-11.03-3.14-5.02-5.47-11.24-6.97-18.66l-1.88-.38L0,113.65c2.39,5.4,6.15,10.21,11.31,14.42,5.15,4.21,11.18,7.54,18.09,9.99,6.91,2.45,14.2,3.68,21.86,3.68,10.05,0,19.07-1.73,27.05-5.18,7.98-3.45,14.2-8.35,18.66-14.7,4.46-6.34,6.69-13.66,6.69-21.96,0-10.55-2.86-18.97-8.58-25.25-5.72-6.28-14.42-11.5-26.1-15.64Z"/>
    <path class="cls-2" d="M129.1,31.29c4.4,0,8.2-1.51,11.4-4.52,3.2-3.02,4.81-6.72,4.81-11.12s-1.6-7.95-4.81-11.03C137.3,1.54,133.5,0,129.1,0,124.45,0,120.62,1.54,117.61,4.62c-3.02,3.08-4.52,6.82-4.52,11.21s1.51,7.92,4.52,10.93c3.01,3.02,6.85,4.52,11.5,4.52Z"/>
    <polygon class="cls-2" points="142.67 41.28 111.39 45.61 111.39 47.12 115.91 58.62 115.91 128.35 111.39 138.34 111.39 139.85 147.39 139.85 147.39 138.34 142.67 128.35 142.67 41.28"/>
    <path class="cls-2" d="M225.22,116.48c-4.27,3.39-9.36,5.09-15.27,5.09-4.4,0-8.67-1.16-12.82-3.49-4.14-2.32-7.7-6.13-10.65-11.4-2.95-5.28-4.43-12.12-4.43-20.54,0-6.78,1.04-12.72,3.11-17.81,2.07-5.09,4.9-9.05,8.48-11.87s7.7-4.24,12.34-4.24c5.53,0,10.18,2.17,13.95,6.5,3.77,4.33,6.28,10.21,7.54,17.62l1.88.19,15.83-14.51c-1.76-4.4-4.62-8.23-8.58-11.5-3.96-3.27-8.61-5.81-13.95-7.63-5.34-1.82-11.03-2.73-17.06-2.73-9.42,0-18.09,2.14-26.01,6.41-7.92,4.27-14.14,10.24-18.66,17.91-4.52,7.67-6.79,16.46-6.79,26.39s2.07,18.54,6.22,26.2c4.15,7.67,9.99,13.7,17.53,18.09,7.54,4.4,16.02,6.6,25.44,6.6,8.29,0,15.55-1.57,21.77-4.71,6.22-3.14,11.24-7.7,15.08-13.66,3.83-5.97,6.31-12.91,7.45-20.83l-12.25-2.07c-2.52,7.29-5.91,12.63-10.18,16.02Z"/>
    <path class="cls-2" d="M298.73,43.44c-4.15,2.2-7.67,5.37-10.55,9.52-1.47,2.11-2.72,4.4-3.77,6.86v-18.55l-31.29,4.33v1.51l4.52,11.5v69.92l-4.52,9.99v1.32h37.88v-1.32l-6.6-10.18v-44.94c1.08-3.31,2.65-6.39,4.71-9.25,2.76-3.83,6.5-6.56,11.21-8.2,4.71-1.63,10.4-1.51,17.06.38l1.13-25.63c-1.38-.38-3.58-.57-6.6-.57-4.65,0-9.05,1.1-13.19,3.3Z"/>
    <path class="cls-2" d="M418.41,41.28h-17.34l-7.16,9.42c-2.64-2.89-6.41-5.37-11.31-7.45-4.9-2.07-10.18-3.11-15.83-3.11-9.3,0-17.56,2.14-24.79,6.41-7.23,4.27-12.88,10.27-16.96,18-4.08,7.73-6.13,16.49-6.13,26.29s1.88,18.57,5.65,26.29c3.77,7.73,8.98,13.76,15.64,18.09,6.66,4.34,14.26,6.5,22.81,6.5,6.41,0,12.18-1.51,17.34-4.52,5.15-3.02,8.92-6.79,11.31-11.31v13.95h31.48v-1.32l-4.71-10.18V41.28ZM391.64,101.96c-.5,3.9-1.76,7.38-3.77,10.46-2.01,3.08-4.62,5.47-7.82,7.16-3.2,1.7-6.57,2.55-10.08,2.55-4.65,0-8.8-1.32-12.44-3.96-3.65-2.64-6.47-6.34-8.48-11.12-2.01-4.77-3.01-10.24-3.01-16.4,0-6.53,1.04-12.37,3.11-17.53,2.07-5.15,4.96-9.17,8.67-12.06,3.7-2.89,7.94-4.34,12.72-4.34,3.52,0,6.78.72,9.8,2.17,3.02,1.45,5.47,3.55,7.35,6.31,1.88,2.77,3.2,6.16,3.96,10.18v26.58Z"/>
  </g>
  <g>
    <path class="cls-1" d="M451.99,78.08h14.41v2.05h-12.07v7.57h9.68v2.05h-9.68v9.02h12.07v2.05h-14.41v-22.73Z"/>
    <path class="cls-1" d="M468.95,84.45h2.11v2.77c1.04-1.58,2.99-3.09,5.49-3.09,3.62,0,6.05,2.18,6.05,5.71v10.97h-2.14v-10.53c0-2.62-1.61-4.19-4.19-4.19s-4.54,2.05-5.2,4.51v10.21h-2.11v-16.36Z"/>
    <path class="cls-1" d="M491.65,102.17c0-1.36.76-2.71,1.77-3.5-.82-.47-1.29-1.23-1.29-2.33,0-1.45,1.2-2.58,2.27-3.25-.88-.91-1.39-2.14-1.39-3.59,0-3.18,2.36-5.36,5.9-5.36,1.07,0,2.02.19,2.84.54l4.7-.28v1.92h-2.58c.66.85,1.01,1.95,1.01,3.18,0,3.15-2.4,5.33-5.96,5.33-1.2,0-2.24-.25-3.12-.69-.88.5-1.48,1.2-1.48,2.02,0,1.04.82,1.39,2.43,1.39h4.86c2.96,0,5.23,1.42,5.23,4.19,0,3.28-2.87,5.3-7.85,5.3-4.22,0-7.31-1.45-7.31-4.86ZM498.96,105.13c3.72,0,5.64-1.29,5.64-3.34,0-1.73-1.1-2.43-3.15-2.43h-4.67c-.47,0-.91-.03-1.32-.06-1.26.66-1.61,1.86-1.61,2.77,0,2.21,2.27,3.06,5.11,3.06ZM502.68,89.49c0-2.08-1.45-3.5-3.78-3.5s-3.72,1.42-3.72,3.5,1.42,3.47,3.72,3.47,3.78-1.42,3.78-3.47Z"/>
    <path class="cls-1" d="M507.7,92.62c0-4.89,3.34-8.48,7.94-8.48s7.94,3.59,7.94,8.48-3.37,8.51-7.94,8.51-7.94-3.59-7.94-8.51ZM521.35,92.62c0-3.78-2.4-6.53-5.71-6.53s-5.67,2.74-5.67,6.53,2.36,6.56,5.67,6.56,5.71-2.77,5.71-6.56Z"/>
    <path class="cls-1" d="M525.66,92.62c0-4.92,3.28-8.48,7.69-8.48,2.3,0,4.63,1.23,5.64,3.06v-9.43h2.11v23.04h-2.11v-2.81c-1.01,1.86-3.34,3.12-5.64,3.12-4.41,0-7.69-3.59-7.69-8.51ZM539,93.72v-2.21c-.22-3.18-2.43-5.42-5.45-5.42-3.31,0-5.64,2.58-5.64,6.53s2.33,6.56,5.64,6.56c3.03,0,5.23-2.3,5.45-5.45Z"/>
    <path class="cls-1" d="M549.87,86.53l-.72-1.96v-.13h2.14l.06.13.69,1.96,4.26,11.88,4.19-11.88.66-1.96.06-.13h2.21v.13l-.72,1.96-5.2,14.28h-2.36l-5.26-14.28Z"/>
    <path class="cls-1" d="M565.22,79.79c0-.85.66-1.54,1.54-1.54s1.58.69,1.58,1.54-.69,1.58-1.58,1.58-1.54-.69-1.54-1.58ZM565.73,100.81v-16.36h2.11v16.36h-2.11Z"/>
    <path class="cls-1" d="M571.81,84.45h2.11v2.9c.91-1.8,2.55-3.22,4.79-3.22.32,0,.63,0,.91.06v2.08c-3.47-.6-5.23,2.43-5.71,4.51v10.02h-2.11v-16.36Z"/>
    <path class="cls-1" d="M595.14,84.45v.13l-6.94,6.18,6.08,8.04,1.45,1.89v.13h-2.68l-.06-.13-1.42-1.89-4.92-6.65-2.62,2.33v6.34h-2.11v-23.04h2.11v14.03l7.94-7.22.16-.13h3Z"/>
    <path class="cls-1" d="M595.74,96.3l1.95-.98h.13c.35,2.3,1.86,3.88,4.57,3.88,2.14,0,3.59-1.13,3.59-2.93,0-1.54-1.07-2.33-2.65-2.71l-3.15-.76c-1.99-.5-3.91-1.45-3.91-4.19,0-2.52,2.3-4.48,5.58-4.48s5.36,1.61,5.99,4.22l-2.02.79h-.13c-.35-2.02-1.8-3.15-3.85-3.15s-3.31,1.2-3.31,2.55,1.01,2.02,2.33,2.33l3.06.76c2.27.6,4.32,1.51,4.32,4.63,0,2.9-2.4,4.85-5.86,4.85-4.1,0-6.21-2.24-6.65-4.82Z"/>
    <path class="cls-1" d="M610.15,92.62c0-4.89,3.34-8.48,7.94-8.48s7.94,3.59,7.94,8.48-3.37,8.51-7.94,8.51-7.94-3.59-7.94-8.51ZM623.8,92.62c0-3.78-2.4-6.53-5.71-6.53s-5.67,2.74-5.67,6.53,2.36,6.56,5.67,6.56,5.71-2.77,5.71-6.56Z"/>
    <path class="cls-1" d="M629.06,84.45h2.11v2.77c1.04-1.54,2.99-3.09,5.49-3.09,2.81,0,4.48,1.36,5.14,3.47,1.29-2.11,3.28-3.47,5.71-3.47,3.66,0,5.55,2.33,5.55,5.58v11.1h-2.14v-10.62c0-3.12-1.7-4.1-3.66-4.1-2.52,0-4.51,2.02-5.14,4.51v10.21h-2.14v-10.62c0-3.12-1.67-4.1-3.56-4.1-2.58,0-4.6,2.05-5.23,4.51v10.21h-2.11v-16.36Z"/>
    <path class="cls-1" d="M656.83,77.77h2.11v9.46c1.04-1.58,2.99-3.09,5.48-3.09,3.63,0,6.05,2.18,6.05,5.71v10.97h-2.14v-10.53c0-2.62-1.61-4.19-4.19-4.19s-4.54,2.05-5.2,4.51v10.21h-2.11v-23.04Z"/>
    <path class="cls-1" d="M681.07,84.13c6.24,0,7.57,5.49,7.19,8.58h-12.74c.06,4.04,2.33,6.49,5.67,6.49,2.65,0,4.22-1.13,4.92-3.62l2.18.76c-.92,2.93-3.44,4.79-7.12,4.79-4.57,0-7.82-3.5-7.82-8.51s3.15-8.48,7.72-8.48ZM686.05,90.98c-.19-3.03-2.05-5.01-4.98-5.01s-4.92,2.02-5.42,5.01h10.4Z"/>
    <path class="cls-1" d="M692.32,96.49v-10.18h-3.09v-1.86c3.09,0,3.15-.13,3.15-3.78h2.05v3.78h4.6v1.86h-4.6v10.18c0,1.89,1.1,2.68,2.33,2.68.66,0,1.29-.06,1.99-.54v1.95c-.44.32-1.32.54-2.11.54-2.52,0-4.32-1.48-4.32-4.63Z"/>
    <path class="cls-1" d="M465.05,122.28v.13l-6.94,6.18,6.08,8.04,1.45,1.89v.13h-2.68l-.06-.13-1.42-1.89-4.92-6.65-2.62,2.33v6.34h-2.11v-23.04h2.11v14.03l7.94-7.22.16-.13h3Z"/>
    <path class="cls-1" d="M467.31,122.28h2.11v2.9c.91-1.8,2.55-3.22,4.79-3.22.32,0,.63,0,.91.06v2.08c-3.47-.6-5.23,2.43-5.71,4.51v10.03h-2.11v-16.36Z"/>
    <path class="cls-1" d="M483.05,121.96c6.24,0,7.57,5.49,7.19,8.57h-12.74c.06,4.04,2.33,6.49,5.67,6.49,2.65,0,4.22-1.13,4.92-3.62l2.18.76c-.92,2.93-3.44,4.79-7.12,4.79-4.57,0-7.82-3.5-7.82-8.51s3.15-8.48,7.72-8.48ZM488.03,128.8c-.19-3.03-2.05-5.01-4.98-5.01s-4.92,2.02-5.42,5.01h10.4Z"/>
    <path class="cls-1" d="M491.84,124.36l-.72-1.95v-.13h2.14l.06.13.69,1.95,4.26,11.88,4.19-11.88.66-1.95.06-.13h2.21v.13l-.72,1.95-5.2,14.28h-2.36l-5.26-14.28Z"/>
    <path class="cls-1" d="M513.84,121.96c6.24,0,7.57,5.49,7.19,8.57h-12.74c.06,4.04,2.33,6.49,5.67,6.49,2.65,0,4.22-1.13,4.92-3.62l2.18.76c-.92,2.93-3.44,4.79-7.12,4.79-4.57,0-7.82-3.5-7.82-8.51s3.15-8.48,7.72-8.48ZM518.82,128.8c-.19-3.03-2.05-5.01-4.98-5.01s-4.92,2.02-5.42,5.01h10.4Z"/>
    <path class="cls-1" d="M524.12,122.28h2.11v2.9c.91-1.8,2.55-3.22,4.79-3.22.32,0,.63,0,.91.06v2.08c-3.47-.6-5.23,2.43-5.71,4.51v10.03h-2.11v-16.36Z"/>
    <path class="cls-1" d="M538.75,140c0-1.36.76-2.71,1.77-3.5-.82-.47-1.29-1.23-1.29-2.33,0-1.45,1.2-2.58,2.27-3.25-.88-.91-1.39-2.14-1.39-3.59,0-3.18,2.36-5.36,5.9-5.36,1.07,0,2.02.19,2.84.54l4.7-.28v1.92h-2.58c.66.85,1.01,1.96,1.01,3.18,0,3.15-2.4,5.33-5.96,5.33-1.2,0-2.24-.25-3.12-.69-.88.5-1.48,1.2-1.48,2.02,0,1.04.82,1.39,2.43,1.39h4.86c2.96,0,5.23,1.42,5.23,4.19,0,3.28-2.87,5.3-7.85,5.3-4.22,0-7.31-1.45-7.31-4.85ZM546.06,142.96c3.72,0,5.64-1.29,5.64-3.34,0-1.73-1.1-2.43-3.15-2.43h-4.67c-.47,0-.91-.03-1.32-.06-1.26.66-1.61,1.86-1.61,2.77,0,2.21,2.27,3.06,5.11,3.06ZM549.78,127.32c0-2.08-1.45-3.5-3.78-3.5s-3.72,1.42-3.72,3.5,1.42,3.47,3.72,3.47,3.78-1.42,3.78-3.47Z"/>
    <path class="cls-1" d="M554.79,130.44c0-4.89,3.34-8.48,7.94-8.48s7.94,3.59,7.94,8.48-3.37,8.51-7.94,8.51-7.94-3.59-7.94-8.51ZM568.44,130.44c0-3.78-2.4-6.53-5.71-6.53s-5.67,2.74-5.67,6.53,2.36,6.56,5.67,6.56,5.71-2.77,5.71-6.56Z"/>
    <path class="cls-1" d="M572.76,130.44c0-4.92,3.28-8.48,7.69-8.48,2.3,0,4.63,1.23,5.64,3.06v-9.43h2.11v23.04h-2.11v-2.81c-1.01,1.86-3.34,3.12-5.64,3.12-4.41,0-7.69-3.59-7.69-8.51ZM586.09,131.55v-2.21c-.22-3.18-2.43-5.42-5.45-5.42-3.31,0-5.64,2.58-5.64,6.53s2.33,6.56,5.64,6.56c3.03,0,5.23-2.3,5.45-5.45Z"/>
    <path class="cls-1" d="M597.38,134.13l1.95-.98h.13c.35,2.3,1.86,3.88,4.57,3.88,2.14,0,3.59-1.13,3.59-2.93,0-1.54-1.07-2.33-2.65-2.71l-3.15-.76c-1.99-.5-3.91-1.45-3.91-4.19,0-2.52,2.3-4.48,5.58-4.48s5.36,1.61,5.99,4.22l-2.02.79h-.13c-.35-2.02-1.8-3.15-3.85-3.15s-3.31,1.2-3.31,2.55,1.01,2.02,2.33,2.33l3.06.76c2.27.6,4.32,1.51,4.32,4.63,0,2.9-2.4,4.86-5.86,4.86-4.1,0-6.21-2.24-6.65-4.82Z"/>
    <path class="cls-1" d="M612.26,117.61c0-.85.66-1.54,1.54-1.54s1.58.69,1.58,1.54-.69,1.58-1.58,1.58-1.54-.69-1.54-1.58ZM612.76,138.64v-16.36h2.11v16.36h-2.11Z"/>
    <path class="cls-1" d="M632.05,122.28v.13l-6.94,6.18,6.08,8.04,1.45,1.89v.13h-2.68l-.06-.13-1.42-1.89-4.92-6.65-2.62,2.33v6.34h-2.11v-23.04h2.11v14.03l7.94-7.22.16-.13h3Z"/>
    <path class="cls-1" d="M647.53,122.28v.13l-6.94,6.18,6.08,8.04,1.45,1.89v.13h-2.68l-.06-.13-1.42-1.89-4.92-6.65-2.62,2.33v6.34h-2.11v-23.04h2.11v14.03l7.94-7.22.16-.13h3Z"/>
    <path class="cls-1" d="M655.6,121.96c6.24,0,7.57,5.49,7.19,8.57h-12.74c.06,4.04,2.33,6.49,5.67,6.49,2.65,0,4.22-1.13,4.92-3.62l2.18.76c-.92,2.93-3.44,4.79-7.12,4.79-4.57,0-7.82-3.5-7.82-8.51s3.15-8.48,7.72-8.48ZM660.58,128.8c-.19-3.03-2.05-5.01-4.98-5.01s-4.92,2.02-5.42,5.01h10.4Z"/>
    <path class="cls-1" d="M665.88,122.28h2.11v2.9c.91-1.8,2.55-3.22,4.79-3.22.32,0,.63,0,.91.06v2.08c-3.47-.6-5.23,2.43-5.71,4.51v10.03h-2.11v-16.36Z"/>
    <path class="cls-1" d="M676,115.59h2.11v9.46c1.04-1.58,2.99-3.09,5.48-3.09,3.63,0,6.05,2.17,6.05,5.71v10.97h-2.14v-10.53c0-2.62-1.61-4.19-4.19-4.19s-4.54,2.05-5.2,4.51v10.21h-2.11v-23.04Z"/>
    <path class="cls-1" d="M700.24,121.96c6.24,0,7.57,5.49,7.19,8.57h-12.74c.06,4.04,2.33,6.49,5.67,6.49,2.65,0,4.22-1.13,4.92-3.62l2.18.76c-.92,2.93-3.44,4.79-7.12,4.79-4.57,0-7.82-3.5-7.82-8.51s3.15-8.48,7.72-8.48ZM705.22,128.8c-.19-3.03-2.05-5.01-4.98-5.01s-4.92,2.02-5.42,5.01h10.4Z"/>
    <path class="cls-1" d="M711.49,134.32v-10.18h-3.09v-1.86c3.09,0,3.15-.13,3.15-3.78h2.05v3.78h4.6v1.86h-4.6v10.18c0,1.89,1.1,2.68,2.33,2.68.66,0,1.29-.06,1.99-.54v1.96c-.44.32-1.32.54-2.11.54-2.52,0-4.32-1.48-4.32-4.63Z"/>
    <path class="cls-1" d="M723.19,135.68v2.96h-3.06v-2.96h3.06Z"/>
  </g>
</svg>